<?xml version="1.0" standalone="no"?>
<!DOCTYPE svg PUBLIC "-//W3C//DTD SVG 1.1//EN" "http://www.w3.org/Graphics/SVG/1.1/DTD/svg11.dtd" >
<svg xmlns="http://www.w3.org/2000/svg">
<metadata>
Created by FontPrep 20130207 at Tue Feb  4 13:44:23 2014
 By Miriam
Copyright (c) 1988, 1990, 1993, 2002 Adobe Systems Incorporated.  All Rights Reserved.
</metadata>
<defs>
<font id="06ce8507218b5fc98ef98a8271373604" horiz-adv-x='1024' >
  <font-face 
    font-family="HelveticaNeueLTStd-Roman"
    font-weight="400"
    font-stretch="normal"
    units-per-em="2048"
    panose-1="2 11 6 4 2 2 2 2 2 4"
    ascent="1462"
    descent="-586"
    x-height="1059"
    cap-height="1462"
    bbox="-340 -438 2204 1950"
    underline-thickness="102"
    underline-position="-102"
    unicode-range="U+0020-FB02"
  />
<missing-glyph horiz-adv-x="1024" 
d="M102 1239v-1044l349 522zM164 102h696l-348 523zM573 717l349 -522v1044zM512 809l348 522h-696zM0 0v1434h1024v-1434h-1024z" />
    <glyph glyph-name="f_i" unicode="fi" horiz-adv-x="1060" 
d="M922 0h-174v1059h174v-1059zM922 1249h-174v213h174v-213zM203 0v905h-178v154h178v158q0 129 75 195t218 67q59 0 112 -17v-151q-42 14 -104 14t-94 -27t-33 -92v-147h205v-154h-205v-905h-174z" />
    <glyph glyph-name="f_l" unicode="fl" horiz-adv-x="1060" 
d="M748 0v1462h174v-1462h-174zM203 0v905h-178v154h178v158q0 129 75 195t218 67q59 0 112 -17v-151q-42 14 -104 14t-94 -27t-33 -92v-147h205v-154h-205v-905h-174z" />
    <glyph glyph-name=".notdef" horiz-adv-x="1024" 
d="M102 1239v-1044l349 522zM164 102h696l-348 523zM573 717l349 -522v1044zM512 809l348 522h-696zM0 0v1434h1024v-1434h-1024z" />
    <glyph glyph-name=".null" horiz-adv-x="0" 
 />
    <glyph glyph-name="nonmarkingreturn" horiz-adv-x="681" 
 />
    <glyph glyph-name="space" unicode=" " horiz-adv-x="569" 
 />
    <glyph glyph-name="exclam" unicode="!" horiz-adv-x="530" 
d="M152 0v227h227v-227h-227zM362 1462v-450l-51 -637h-92l-51 637v450h194z" />
    <glyph glyph-name="quotedbl" unicode="&#x22;" horiz-adv-x="872" 
d="M510 934v528h139v-528h-139zM223 934v528h139v-528h-139z" />
    <glyph glyph-name="numbersign" unicode="#" 
d="M727 868h-254l-43 -307h254zM70 422v139h219l43 307h-209v140h227l60 419h141l-59 -419h253l60 419h141l-59 -419h182v-140h-201l-43 -307h187v-139h-207l-60 -422h-141l60 422h-254l-60 -422h-141l59 422h-198z" />
    <glyph glyph-name="dollar" unicode="$" 
d="M94 1072q0 177 120 296t300 129v135h113v-137q319 -39 403 -405h-174q-41 203 -229 237v-504l123 -32q98 -25 200 -105q55 -43 90 -116t35 -160q0 -193 -124 -311t-324 -134v-168h-113v168q-203 20 -325 145t-138 336h174q4 -133 83 -215t206 -102v543q-227 55 -324 139
q-96 84 -96 261zM891 391q-1 107 -67 161t-197 91v-514q264 20 264 262zM514 854v479q-104 -13 -170 -75t-66 -168t58 -152q57 -47 178 -84z" />
    <glyph glyph-name="percent" unicode="%" horiz-adv-x="2048" 
d="M385 -45l1102 1524h174l-1100 -1524h-176zM514 743q180 0 180 298t-176 298t-176 -298t172 -298zM848 1042q0 -176 -81 -294t-251 -117q-170 -1 -249 111t-79 295t78 299t254 116q328 0 328 -410zM1526 88q180 0 180 298t-176 298t-176 -298t172 -298zM1200 382
q0 183 78 299t254 116q328 0 328 -410q0 -176 -81 -294t-251 -118t-249 112t-79 295z" />
    <glyph glyph-name="ampersand" unicode="&#x26;" horiz-adv-x="1290" 
d="M758 1157q0 62 -46 107t-118 45t-122 -40t-50 -116q0 -38 14 -67t24 -52t49 -67q38 -44 54 -68q55 35 91 64t70 81t34 113zM248 1161q0 125 89 213t239 88t252 -79q103 -79 104 -220q0 -223 -275 -379l265 -321q41 111 47 227h166q-9 -124 -29 -190t-70 -170l285 -330
h-227l-156 182q-63 -100 -176 -153t-245 -53t-229 43q-97 44 -142 113q-78 122 -78 262q0 139 88 238t254 185q-12 19 -48 65q-89 117 -107 199q-7 37 -7 80zM252 383q0 -112 84 -183t194 -71q195 0 312 174l-336 404q-126 -72 -190 -142t-64 -182z" />
    <glyph glyph-name="quotesingle" unicode="'" horiz-adv-x="569" 
d="M215 934v528h139v-528h-139z" />
    <glyph glyph-name="parenleft" unicode="(" horiz-adv-x="530" 
d="M96 547q0 247 83 495t239 455h133q-270 -427 -270 -947t270 -956h-133q-160 248 -241 476t-81 477z" />
    <glyph glyph-name="parenright" unicode=")" horiz-adv-x="530" 
d="M250 540q0 520 -270 957h133q161 -248 241 -476t80 -476t-82 -496t-239 -455h-133q270 426 270 946z" />
    <glyph glyph-name="asterisk" unicode="*" horiz-adv-x="720" 
d="M412 1462v-231l219 82l41 -99l-223 -77l135 -187l-84 -63l-142 196l-133 -196l-92 63l133 187l-217 77l37 99l217 -82v231h109z" />
    <glyph glyph-name="plus" unicode="+" horiz-adv-x="1228" 
d="M684 1036v-448h446v-139h-446v-449h-139v449h-447v139h447v448h139z" />
    <glyph glyph-name="comma" unicode="," horiz-adv-x="569" 
d="M170 0v227h227v-207q0 -258 -225 -321v102q63 21 93 81t26 118h-121z" />
    <glyph glyph-name="hyphen" unicode="-" horiz-adv-x="796" 
d="M102 487v164h592v-164h-592z" />
    <glyph glyph-name="period" unicode="." horiz-adv-x="569" 
d="M170 0v227h227v-227h-227z" />
    <glyph glyph-name="slash" unicode="/" horiz-adv-x="681" 
d="M-37 -35l606 1532h150l-606 -1532h-150z" />
    <glyph glyph-name="zero" unicode="0" 
d="M569 129q72 0 125 27q82 42 136 183q38 100 38 376t-38 375q-52 139 -136 182q-53 26 -125 26t-125 -26q-84 -42 -129 -163t-45 -395t38 -375q54 -141 136 -183q53 -27 125 -27zM86 714q0 118 6 202t34 193q28 111 77 179t142 116t224 48t225 -48t142 -117
q49 -69 77 -179t34 -193t6 -201t-6 -203t-34 -194t-77 -177t-142 -116q-92 -48 -224 -48t-225 48t-142 116t-77 178q-28 108 -34 193t-6 203z" />
    <glyph glyph-name="one" unicode="1" 
d="M729 1452v-1452h-174v1040h-377v140q369 0 418 272h133z" />
    <glyph glyph-name="two" unicode="2" 
d="M544 1452q212 0 340 -111t128 -295t-92 -294t-261 -215q-16 -10 -75 -45t-125 -79t-90 -68q-23 -24 -60 -65t-57 -126h745v-154h-948q20 245 140 381q61 70 117 113t208 136t232 180t81 215q0 128 -81 201q-80 72 -210 72t-203 -108t-69 -252h-174q-10 226 116 370
t338 144z" />
    <glyph glyph-name="three" unicode="3" 
d="M522 827q117 1 197 63t80 174t-72 173q-73 61 -197 61t-193 -89t-71 -226h-174q8 215 123 342t320 127t327 -98t121 -291q0 -92 -57 -170t-144 -119v-4q129 -29 196 -123t66 -229q0 -209 -142 -326t-361 -117t-352 126q-132 126 -128 348h175q4 -145 83 -233
q79 -87 219 -87t231 77t91 206q0 128 -87 202t-222 74q-56 0 -105 -6v147q27 -2 76 -2z" />
    <glyph glyph-name="four" unicode="4" 
d="M694 494v710h-4l-483 -710h487zM858 1452v-958h197v-154h-197v-340h-164v340h-637v168l662 944h139z" />
    <glyph glyph-name="five" unicode="5" 
d="M963 1427v-153h-586l-78 -418l4 -4q91 104 283 104t324 -129t132 -368q0 -199 -134 -341t-373 -143q-195 0 -327 113t-136 303h174q8 -115 92 -189t214 -73q130 0 218 89q88 88 88 244t-91 248t-243 93q-152 0 -264 -137l-149 8l135 753h717z" />
    <glyph glyph-name="six" unicode="6" 
d="M604 1298q-332 0 -352 -550l4 -5q117 190 362 191q205 0 325 -132t120 -323t-105 -339q-53 -75 -151 -120t-229 -45q-500 0 -500 699q0 321 111 537q123 241 439 241q164 0 272 -98t122 -273h-174q-12 101 -77 159t-167 58zM587 780q-142 0 -222 -93t-80 -233t81 -232
t218 -93q137 0 216 93q79 92 79 232t-75 233t-217 93z" />
    <glyph glyph-name="seven" unicode="7" 
d="M1042 1427v-149q-220 -220 -378 -580t-179 -698h-194q25 354 178 681q154 327 395 583h-762v163h940z" />
    <glyph glyph-name="eight" unicode="8" 
d="M571 1298q-109 0 -181 -60t-73 -168q0 -110 72 -169t182 -59t178 62q67 62 67 170t-68 166t-177 58zM133 1081q0 171 125 271t301 100q221 0 331 -109t109 -262q0 -96 -55 -178t-145 -123q258 -82 258 -362q0 -205 -136 -324q-137 -119 -351 -119t-351 114t-137 329
q0 129 66 224q67 95 188 138q-90 37 -147 120q-56 83 -56 181zM872 409q0 119 -87 199t-215 80t-216 -78t-88 -203q0 -126 86 -202t219 -76t217 80t84 200z" />
    <glyph glyph-name="nine" unicode="9" 
d="M541 129q313 0 327 561l-4 4q-49 -92 -139 -146t-197 -54q-217 0 -338 133q-120 133 -120 348t133 346t344 131q498 0 497 -694q0 -782 -503 -783q-189 1 -307 97t-134 278h174q8 -102 83 -162t184 -59zM546 647q128 -1 210 93t82 231t-80 232t-222 95t-212 -98t-70 -234
t82 -227q82 -92 210 -92z" />
    <glyph glyph-name="colon" unicode=":" horiz-adv-x="569" 
d="M397 1059v-228h-227v228h227zM170 0v227h227v-227h-227z" />
    <glyph glyph-name="semicolon" unicode=";" horiz-adv-x="569" 
d="M397 1059v-228h-227v228h227zM170 0v227h227v-207q2 -120 -54 -204t-171 -117v102q63 21 93 81t26 118h-121z" />
    <glyph glyph-name="less" unicode="&#x3c;" horiz-adv-x="1228" 
d="M1135 1053v-140l-871 -395l871 -395v-139l-1041 471v127z" />
    <glyph glyph-name="equal" unicode="=" horiz-adv-x="1228" 
d="M98 242v139h1032v-139h-1032zM1130 795v-140h-1032v140h1032z" />
    <glyph glyph-name="greater" unicode="&#x3e;" horiz-adv-x="1228" 
d="M94 -16v139l871 395l-871 395v140l1041 -471v-127z" />
    <glyph glyph-name="question" unicode="?" 
d="M446 0v227h228v-227h-228zM562 1497q202 1 322 -109t120 -301q0 -113 -46 -189t-120 -148q-74 -70 -101 -99t-57 -89t-31 -126v-80h-174v97q0 157 132 289l79 79q70 69 104 131q35 62 28 164t-73 164q-65 63 -189 63q-124 1 -198 -93t-71 -244h-174q-4 215 121 353
q126 138 328 138z" />
    <glyph glyph-name="at" unicode="@" horiz-adv-x="1638" 
d="M1071 449q0 -63 49 -64q94 0 189 155q94 155 94 316q0 232 -165 380t-390 148q-260 0 -441 -194t-181 -464q0 -272 186 -460t446 -188q146 0 284 68t224 180h129q-98 -168 -270 -264t-371 -97q-324 0 -546 224q-222 223 -222 543t223 542t525 223q302 0 504 -179
q204 -179 204 -452q0 -128 -47 -242q-85 -206 -275 -308q-84 -44 -148 -44t-101 34t-39 100h-6q-117 -138 -250 -138t-215 93t-82 231q0 225 137 403t344 179q166 0 230 -168l47 129h129l-172 -582q-23 -76 -23 -104zM860 1034q-135 0 -231 -140t-97 -288q0 -86 50 -142
t127 -56q125 0 221 148t96 288q0 74 -51 132q-52 58 -115 58z" />
    <glyph glyph-name="A" unicode="A" horiz-adv-x="1327" 
d="M659 1286l-247 -682h495l-243 682h-5zM-14 0l571 1462h215l571 -1462h-215l-159 440h-619l-164 -440h-200z" />
    <glyph glyph-name="B" unicode="B" horiz-adv-x="1402" 
d="M354 1298v-464h389q164 0 238 58t74 190t-86 174t-226 42h-389zM160 0v1462h530q299 0 387 -53q172 -102 172 -305q0 -115 -57 -201t-160 -127v-4q133 -27 206 -121q73 -95 73 -249t-119 -278t-326 -124h-706zM354 670v-506h488q126 0 200 70t74 192q0 244 -317 244h-445
z" />
    <glyph glyph-name="C" unicode="C" horiz-adv-x="1478" 
d="M778 1333q-246 0 -370 -171t-125 -430q0 -259 124 -431t373 -172q186 0 297 117t125 305h195q-29 -276 -194 -431t-439 -155q-328 0 -502 213t-174 547t183 553t509 219q238 0 404 -124t198 -351h-194q-32 152 -142 232t-268 79z" />
    <glyph glyph-name="D" unicode="D" horiz-adv-x="1441" 
d="M354 1298v-1134h324q53 0 103 7t126 41t129 91t93 170t40 266q0 274 -114 417q-115 142 -373 142h-328zM160 0v1462h502q342 0 522 -174t180 -522q0 -766 -702 -766h-502z" />
    <glyph glyph-name="E" unicode="E" horiz-adv-x="1251" 
d="M160 0v1462h1009v-164h-815v-464h760v-164h-760v-506h822v-164h-1016z" />
    <glyph glyph-name="F" unicode="F" horiz-adv-x="1175" 
d="M160 0v1462h960v-164h-766v-464h672v-164h-672v-670h-194z" />
    <glyph glyph-name="G" unicode="G" horiz-adv-x="1554" 
d="M784 -35q-313 0 -504 218t-192 519q0 338 182 566t514 229q252 0 421 -120t208 -365h-194q-29 160 -147 240t-266 81q-278 0 -402 -188q-123 -188 -122 -431t135 -414t361 -171t357 136q129 136 118 341h-467v164h641v-770h-122l-52 182q-79 -109 -205 -163t-264 -54z
" />
    <glyph glyph-name="H" unicode="H" horiz-adv-x="1478" 
d="M160 0v1462h194v-628h770v628h195v-1462h-195v670h-770v-670h-194z" />
    <glyph glyph-name="I" unicode="I" horiz-adv-x="530" 
d="M168 0v1462h194v-1462h-194z" />
    <glyph glyph-name="J" unicode="J" horiz-adv-x="1062" 
d="M903 1462v-1097q0 -170 -102 -285q-103 -115 -319 -115t-326 111t-111 315v90h195v-61q0 -141 51 -216t181 -75t183 68t54 196v1069h194z" />
    <glyph glyph-name="K" unicode="K" horiz-adv-x="1366" 
d="M160 0v1462h194v-729l742 729h252l-617 -590l641 -872h-246l-528 739l-244 -227v-512h-194z" />
    <glyph glyph-name="L" unicode="L" 
d="M160 0v1462h194v-1298h774v-164h-968z" />
    <glyph glyph-name="M" unicode="M" horiz-adv-x="1783" 
d="M164 0v1462h266l461 -1229l463 1229h266v-1462h-184v1217h-4l-457 -1217h-166l-457 1217h-4v-1217h-184z" />
    <glyph glyph-name="N" unicode="N" horiz-adv-x="1478" 
d="M158 0v1462h207l770 -1186h4v1186h184v-1462h-213l-764 1174h-4v-1174h-184z" />
    <glyph glyph-name="O" unicode="O" horiz-adv-x="1556" 
d="M778 129q170 0 288 91t168 223t50 288t-50 288t-168 223t-288 91t-288 -91q-218 -168 -218 -510t218 -512q118 -91 288 -91zM78 731q0 205 76 375t238 280t386 111q223 0 386 -111q163 -110 239 -280t76 -375t-76 -375t-239 -280t-386 -111q-223 0 -386 111
q-162 110 -238 280t-76 375z" />
    <glyph glyph-name="P" unicode="P" horiz-adv-x="1327" 
d="M354 1298v-536h381q319 -2 320 268q0 268 -320 268h-381zM160 0v1462h641q217 0 333 -114t116 -318q0 -206 -118 -320q-116 -114 -331 -112h-447v-598h-194z" />
    <glyph glyph-name="Q" unicode="Q" horiz-adv-x="1556" 
d="M1284 731q0 343 -218 511q-118 91 -288 91t-288 -91q-216 -166 -217 -509t217 -513q118 -91 288 -91q109 0 203 41l-162 129l103 119l194 -156q168 166 168 469zM768 -35q-213 0 -376 111q-162 110 -238 280t-76 375t76 375t238 280t386 111q223 0 386 -111
q163 -110 239 -280t76 -375q0 -367 -222 -581l193 -154l-98 -123l-224 180q-147 -88 -360 -88z" />
    <glyph glyph-name="R" unicode="R" horiz-adv-x="1402" 
d="M160 0v1462h688q204 0 324 -103t120 -280q0 -137 -63 -236t-191 -134v-4q117 -23 162 -99t57 -203q1 -16 7 -103t11 -120q18 -120 68 -180h-217q-25 27 -30 83q-6 56 -10 139q-5 148 -25 215t-46 108q-49 78 -186 80h-475v-625h-194zM354 788h406q158 0 248 56t90 205
q0 113 -65 181t-195 68h-484v-510z" />
    <glyph glyph-name="S" unicode="S" horiz-adv-x="1327" 
d="M643 1333q-139 0 -233 -59t-95 -191q-1 -64 25 -91t54 -53t118 -52q100 -28 223 -52q228 -46 372 -137t144 -297q0 -147 -90 -249q-165 -187 -481 -187q-262 0 -433 131t-171 385h184q0 -174 123 -263t291 -89t276 61t107 205q0 182 -290 248q-52 12 -150 33t-161 38
q-158 44 -247 127q-90 83 -88 228q0 209 155 319q156 110 384 110t374 -117q148 -116 156 -347h-184q-33 299 -363 299z" />
    <glyph glyph-name="T" unicode="T" horiz-adv-x="1175" 
d="M492 0v1298h-488v164h1170v-164h-488v-1298h-194z" />
    <glyph glyph-name="U" unicode="U" horiz-adv-x="1478" 
d="M1327 1462v-934q1 -274 -149 -418t-434 -144t-438 138q-155 139 -154 424v934h194v-934q0 -193 106 -296t294 -103q190 0 288 103t99 296v934h194z" />
    <glyph glyph-name="V" unicode="V" horiz-adv-x="1251" 
d="M1255 1462l-520 -1462h-221l-516 1462h211l418 -1267h4l422 1267h202z" />
    <glyph glyph-name="W" unicode="W" horiz-adv-x="1896" 
d="M1872 1462l-391 -1462h-203l-334 1229h-4l-338 -1229h-203l-374 1462h198l287 -1216h4l328 1216h211l323 -1216h4l297 1216h195z" />
    <glyph glyph-name="X" unicode="X" horiz-adv-x="1251" 
d="M-2 0l510 752l-481 710h233l365 -571l381 571h217l-484 -710l514 -752h-237l-393 604l-406 -604h-219z" />
    <glyph glyph-name="Y" unicode="Y" horiz-adv-x="1327" 
d="M764 0h-195v598l-565 864h232l438 -696l428 696h221l-559 -864v-598z" />
    <glyph glyph-name="Z" unicode="Z" horiz-adv-x="1251" 
d="M45 0v164l909 1134h-839v164h1069v-164l-908 -1134h932v-164h-1163z" />
    <glyph glyph-name="bracketleft" unicode="[" horiz-adv-x="530" 
d="M530 1497v-139h-219v-1624h219v-140h-383v1903h383z" />
    <glyph glyph-name="backslash" unicode="\" horiz-adv-x="681" 
d="M113 1497l606 -1532h-150l-606 1532h150z" />
    <glyph glyph-name="bracketright" unicode="]" horiz-adv-x="530" 
d="M0 -406v140h219v1624h-219v139h383v-1903h-383z" />
    <glyph glyph-name="asciicircum" unicode="^" horiz-adv-x="1228" 
d="M102 541l447 886h131l446 -886h-143l-371 737l-364 -737h-146z" />
    <glyph glyph-name="underscore" unicode="_" horiz-adv-x="1024" 
d="M0 -256v102h1024v-102h-1024z" />
    <glyph glyph-name="grave" unicode="`" horiz-adv-x="454" 
d="M221 1204l-268 293h223l176 -293h-131z" />
    <glyph glyph-name="a" unicode="a" horiz-adv-x="1099" 
d="M944 -25q-147 0 -147 164q-139 -164 -373 -164q-156 0 -253 74t-97 235t117 231t333 98q217 29 248 78q16 26 16 63q0 176 -244 176t-255 -201h-174q8 184 131 269t317 85q397 0 398 -290v-545q0 -72 8 -96q7 -24 39 -23q32 0 61 10v-135q-47 -29 -125 -29zM786 369v178
q-51 -38 -169 -53q-119 -15 -146 -19q-101 -18 -157 -60t-56 -126t58 -122t147 -38q155 0 239 77t84 163z" />
    <glyph glyph-name="b" unicode="b" horiz-adv-x="1214" 
d="M137 0v1462h174v-547h4q41 84 132 126t206 42q233 0 361 -159q127 -160 127 -398t-126 -394t-358 -157q-96 0 -192 40t-150 126h-4v-141h-174zM956 533q0 169 -84 283t-246 114t-241 -117q-80 -117 -80 -286t83 -283t250 -115q167 0 243 118q75 118 75 286z" />
    <glyph glyph-name="c" unicode="c" horiz-adv-x="1099" 
d="M552 129q140 0 215 69t91 189h178q-30 -197 -150 -305t-317 -107q-239 1 -367 149t-128 395t129 406t370 158q191 0 315 -92t142 -272h-180q-20 100 -88 155q-68 56 -166 56q-190 1 -268 -127q-70 -112 -70 -280q0 -169 77 -281t217 -113z" />
    <glyph glyph-name="d" unicode="d" horiz-adv-x="1214" 
d="M576 930q-166 0 -242 -118t-76 -286t84 -282t246 -115q162 0 242 117q80 118 79 286q0 168 -83 283t-250 115zM1077 1462v-1462h-174v143h-4q-41 -84 -132 -126t-206 -42q-233 0 -360 160q-127 159 -127 397t126 395t357 156q97 0 193 -40t149 -125h4v544h174z" />
    <glyph glyph-name="e" unicode="e" horiz-adv-x="1099" 
d="M559 930q-129 0 -210 -86t-91 -213h608q-6 127 -92 213t-215 86zM588 129q227 0 274 207h172q-36 -174 -154 -267t-298 -94q-244 0 -372 152t-136 405q0 238 140 395t357 156q109 0 195 -39t139 -100t88 -143q64 -151 58 -324h-793q-4 -147 80 -247t250 -101z" />
    <glyph glyph-name="f" unicode="f" horiz-adv-x="606" 
d="M203 0v905h-178v154h178v158q0 129 75 195t218 67q59 0 112 -17v-151q-42 14 -104 14t-94 -27t-33 -92v-147h205v-154h-205v-905h-174z" />
    <glyph glyph-name="g" unicode="g" horiz-adv-x="1175" 
d="M1044 1059v-969q0 -520 -491 -520q-239 0 -364 129q-71 74 -74 182h174q6 -86 89 -129t185 -43q317 0 318 402v69h-4q-41 -92 -133 -142t-197 -50q-225 0 -349 154t-124 371q0 218 105 383q53 85 153 136t231 51q219 0 316 -176h2v152h163zM557 141q160 0 238 121
q77 121 77 284q0 164 -74 274t-230 110q-154 0 -232 -110t-78 -275q0 -230 121 -340q69 -64 178 -64z" />
    <glyph glyph-name="h" unicode="h" 
d="M131 0v1462h174v-559h4q41 90 135 135t199 45q197 0 281 -101t84 -286v-696h-174v717q0 98 -58 155t-158 58q-154 0 -234 -91t-79 -241v-598h-174z" />
    <glyph glyph-name="i" unicode="i" horiz-adv-x="454" 
d="M315 1462v-213h-174v213h174zM141 0v1059h174v-1059h-174z" />
    <glyph glyph-name="j" unicode="j" horiz-adv-x="454" 
d="M315 1462v-213h-174v213h174zM315 1059v-1194q1 -137 -67 -204t-187 -67q-49 0 -90 9v149q25 -4 77 -4t73 32q20 32 20 114v1165h174z" />
    <glyph glyph-name="k" unicode="k" horiz-adv-x="1062" 
d="M141 0v1462h174v-866l484 463h233l-420 -385l451 -674h-221l-363 553l-164 -152v-401h-174z" />
    <glyph glyph-name="l" unicode="l" horiz-adv-x="454" 
d="M141 0v1462h174v-1462h-174z" />
    <glyph glyph-name="m" unicode="m" horiz-adv-x="1746" 
d="M131 0v1059h164v-156h4q119 180 342 180q104 0 182 -44t109 -136q53 84 141 132t191 48q352 0 352 -307v-776h-174v694q0 113 -43 174q-43 62 -165 62t-198 -74t-75 -197v-659h-175v694q0 236 -179 236q-164 1 -238 -107q-62 -90 -64 -164v-659h-174z" />
    <glyph glyph-name="n" unicode="n" 
d="M131 0v1059h164v-168h4q109 193 344 192q197 0 281 -101t84 -286v-696h-174v717q0 98 -58 155t-158 58q-154 0 -234 -91t-79 -241v-598h-174z" />
    <glyph glyph-name="o" unicode="o" horiz-adv-x="1175" 
d="M258 528q0 -186 94 -292t236 -106t235 106q94 106 95 292q0 186 -94 294t-236 108t-236 -108t-94 -294zM588 -25q-244 -1 -379 155t-135 399t135 399t379 156t379 -156t135 -399t-135 -399t-379 -155z" />
    <glyph glyph-name="p" unicode="p" horiz-adv-x="1214" 
d="M137 -406v1465h174v-144h4q41 84 132 126t206 42q233 0 361 -159q127 -160 127 -398t-126 -394t-358 -157q-96 0 -192 40t-150 126h-4v-547h-174zM956 533q0 169 -84 283t-246 114t-241 -117q-80 -117 -80 -286t83 -283t250 -115q167 0 243 118q75 118 75 286z" />
    <glyph glyph-name="q" unicode="q" horiz-adv-x="1214" 
d="M576 930q-166 0 -242 -118t-76 -286t84 -282t246 -115q162 0 242 117q80 118 79 286q0 168 -83 283t-250 115zM1077 1059v-1465h-174v549h-4q-41 -84 -132 -126t-206 -42q-233 0 -360 160q-127 159 -127 397t126 395t357 156q97 0 193 -40t149 -125h4v141h174z" />
    <glyph glyph-name="r" unicode="r" horiz-adv-x="681" 
d="M125 0v1059h164v-223h4q63 131 157 191t232 56v-184q-203 -1 -293 -109t-90 -319v-471h-174z" />
    <glyph glyph-name="s" unicode="s" horiz-adv-x="1024" 
d="M522 129q256 0 256 158q0 48 -19 69q-19 20 -31 32t-37 24q-26 10 -42 17t-51 16t-51 13t-97 21q-153 29 -258 94q-106 65 -106 211q0 144 119 222t276 77q416 0 434 -331h-174q-8 94 -77 136q-70 42 -166 42t-162 -31t-66 -94t32 -86q32 -24 58 -40t176 -49
q149 -32 206 -53q56 -20 110 -54q110 -69 111 -214q0 -250 -289 -316q-76 -17 -162 -18q-195 -1 -318 87t-131 272h175q4 -109 84 -157t200 -48z" />
    <glyph glyph-name="t" unicode="t" horiz-adv-x="645" 
d="M373 1376v-317h211v-154h-211v-657q0 -59 24 -77q25 -17 107 -17h80v-154h-133q-141 0 -197 46q-55 46 -55 185v674h-181v154h181v317h174z" />
    <glyph glyph-name="u" unicode="u" 
d="M1008 1059v-1059h-164v168h-4q-109 -193 -344 -193q-197 -1 -281 101t-84 286v697h174v-717q1 -96 59 -154t156 -59q154 0 234 91t80 241v598h174z" />
    <glyph glyph-name="v" unicode="v" horiz-adv-x="1024" 
d="M995 1059l-387 -1059h-186l-393 1059h194l297 -883h4l289 883h182z" />
    <glyph glyph-name="w" unicode="w" horiz-adv-x="1552" 
d="M1518 1059l-338 -1059h-185l-215 842h-4l-213 -842h-188l-340 1059h192l240 -866h4l213 866h190l222 -866h4l237 866h181z" />
    <glyph glyph-name="x" unicode="x" horiz-adv-x="1060" 
d="M18 0l398 557l-369 502h223l254 -371l264 371h209l-364 -488l409 -571h-223l-295 438l-295 -438h-211z" />
    <glyph glyph-name="y" unicode="y" horiz-adv-x="1024" 
d="M1008 1059l-461 -1200q-61 -158 -127 -220q-66 -63 -159 -63t-142 18v160q78 -25 102 -24q92 0 144 96l71 180l-420 1053h197l309 -866h4l297 866h185z" />
    <glyph glyph-name="z" unicode="z" horiz-adv-x="983" 
d="M45 0v133l639 772h-598v154h823v-119l-647 -786h676v-154h-893z" />
    <glyph glyph-name="braceleft" unicode="{" horiz-adv-x="681" 
d="M633 1497v-123h-103q-98 0 -98 -176v-375q0 -125 -60 -193t-118 -81v-6q49 -4 93 -48q85 -84 85 -227v-374q0 -176 98 -177h103v-123h-144q-85 0 -153 73t-68 196v373q0 106 -51 173t-119 66v139q68 0 119 69t51 173v373q0 123 69 195t152 73h144z" />
    <glyph glyph-name="bar" unicode="|" horiz-adv-x="454" 
d="M158 -438v2048h139v-2048h-139z" />
    <glyph glyph-name="braceright" unicode="}" horiz-adv-x="681" 
d="M49 -406v123h103q98 0 98 177v374q0 125 60 193t118 82v6q-50 4 -94 47q-84 83 -84 227v371q0 180 -98 180h-103v123h144q85 0 153 -73t68 -195v-373q0 -110 51 -176t119 -66v-139q-68 1 -119 -67t-51 -172v-373q0 -123 -69 -196t-152 -73h-144z" />
    <glyph glyph-name="asciitilde" unicode="~" horiz-adv-x="1228" 
d="M384 522q-98 0 -169 -155l-74 102q92 176 256 176q108 0 298 -99q92 -48 135 -48q44 0 80 28t52 52q16 22 52 75l73 -102q-41 -55 -67 -86t-78 -61q-51 -30 -124 -30q-72 0 -204 74t-230 74z" />
    <glyph glyph-name="uni00A0" unicode="&#xa0;" horiz-adv-x="569" 
 />
    <glyph glyph-name="exclamdown" unicode="&#xa1;" horiz-adv-x="530" 
d="M379 1059v-228h-227v228h227zM168 -406v451l51 637h92l51 -637v-451h-194z" />
    <glyph glyph-name="cent" unicode="&#xa2;" 
d="M557 -238v213q-219 8 -341 158t-122 383t121 393t342 174v195h80v-195q174 -4 285 -94t131 -270h-179q-20 96 -80 152t-157 59v-801q209 20 248 258h174q-16 -166 -129 -289t-293 -123v-213h-80zM557 129v801q-147 -18 -213 -132t-66 -275t70 -273t209 -121z" />
    <glyph glyph-name="sterling" unicode="&#xa3;" 
d="M96 670v92h119q-96 160 -96 334t136 287q136 114 349 114t341 -135t124 -393h-174q-10 375 -299 374q-123 1 -208 -77t-85 -181t34 -177q11 -26 38 -76t35 -70h325v-92h-280q41 -78 41 -159t-38 -157t-80 -118t-120 -105l4 -4q135 59 213 59t197 -30q125 -37 172 -37
q86 0 182 76l88 -136q-111 -94 -299 -94q-76 0 -210 42t-220 42t-192 -72l-97 136q96 67 161 161t65 190t-52 206h-174z" />
    <glyph glyph-name="currency" unicode="&#xa4;" 
d="M572 1073q-142 0 -241 -103t-99 -254t98 -253q100 -103 242 -103t238 104t97 252q0 148 -96 253q-97 104 -239 104zM1081 723q0 -182 -106 -311l112 -115l-96 -96l-114 118q-119 -113 -305 -113t-310 111l-112 -118l-99 98l113 119q-106 128 -106 310t110 292l-117 119
l101 100l114 -115q125 104 304 104t298 -102l117 115l102 -104l-112 -113q106 -117 106 -299z" />
    <glyph glyph-name="yen" unicode="&#xa5;" 
d="M475 0v356h-289v123h289v86l-37 68h-252v123h189l-375 706h223l357 -723l346 723h213l-365 -706h191v-123h-258l-37 -68v-86h295v-123h-295v-356h-195z" />
    <glyph glyph-name="brokenbar" unicode="&#xa6;" horiz-adv-x="454" 
d="M297 1354v-512h-139v512h139zM158 -182v512h139v-512h-139z" />
    <glyph glyph-name="section" unicode="&#xa7;" 
d="M463 1018q130 -94 254 -152q160 -84 250 -174t90 -223q1 -98 -59 -182t-154 -119q121 -90 121 -242t-108 -241q-107 -91 -281 -91t-284 104t-122 284h174q2 -104 66 -169t156 -65q94 0 156 45t62 117t-32 108t-60 62q-45 43 -287 170t-305 270q-28 66 -28 153t63 169
t156 106q-94 98 -94 217q0 152 113 242q114 90 276 90t262 -96q100 -97 104 -283h-174q-2 96 -57 161t-145 65t-145 -46q-54 -45 -54 -130t86 -150zM240 682q0 -53 16 -90t57 -72t63 -48t79 -48q164 -86 286 -170q147 61 148 190q0 103 -143 196q-18 13 -170 105t-187 115
q-61 -20 -105 -72t-44 -106z" />
    <glyph glyph-name="dieresis" unicode="&#xa8;" horiz-adv-x="454" 
d="M-57 1212v213h184v-213h-184zM328 1212v213h184v-213h-184z" />
    <glyph glyph-name="copyright" unicode="&#xa9;" horiz-adv-x="1638" 
d="M846 262q-205 0 -330 132t-125 339t121 336t328 129q152 0 257 -81t128 -230h-129q-16 88 -85 143t-169 55q-148 0 -230 -98t-82 -250t87 -257t229 -105q100 1 168 59t82 150h131q-33 -146 -136 -234t-245 -88zM1450 732q0 278 -181 464q-181 188 -449 188t-450 -188
t-182 -464q0 -278 182 -466t450 -188q267 0 449 188q181 188 181 466zM49 733q0 324 227 544q226 220 544 220t544 -220t225 -544q0 -324 -225 -546q-226 -222 -544 -222t-545 222q-226 222 -226 546z" />
    <glyph glyph-name="ordfeminine" unicode="&#xaa;" horiz-adv-x="774" 
d="M190 965q0 -84 116 -84t168 43t52 98v96q-31 -18 -149 -38q-119 -20 -153 -43q-34 -24 -34 -72zM649 1274v-328q0 -66 29 -65q31 0 45 4v-90q-43 -16 -88 -17q-98 0 -105 94q-90 -94 -239 -94q-104 0 -172 46t-68 137q0 178 246 202q147 15 191 31t44 55q0 61 -42 81
t-115 20q-164 0 -170 -115h-123q6 111 89 164t212 53q266 0 266 -178z" />
    <glyph glyph-name="guillemotleft" unicode="&#xab;" horiz-adv-x="948" 
d="M414 233l-312 246v180l312 246v-176l-205 -160l205 -159v-177zM815 233l-311 246v180l311 246v-176l-205 -160l205 -159v-177z" />
    <glyph glyph-name="logicalnot" unicode="&#xac;" horiz-adv-x="1228" 
d="M1130 795v-572h-139v432h-893v140h1032z" />
    <glyph glyph-name="uni00AD" unicode="&#xad;" horiz-adv-x="796" 
d="M102 487v164h592v-164h-592z" />
    <glyph glyph-name="registered" unicode="&#xae;" horiz-adv-x="1638" 
d="M662 1067v-285h145q146 0 190 35q45 35 45 113q0 137 -196 137h-184zM522 285v895h346q313 0 314 -256q0 -219 -236 -244l256 -395h-149l-244 385h-147v-385h-140zM1450 732q0 278 -181 464q-181 188 -449 188t-450 -188t-182 -464q0 -278 182 -466t450 -188
q267 0 449 188q181 188 181 466zM49 733q0 324 227 544q226 220 544 220t544 -220t225 -544q0 -324 -225 -546q-226 -222 -544 -222t-545 222q-226 222 -226 546z" />
    <glyph glyph-name="macron" unicode="&#xaf;" horiz-adv-x="454" 
d="M-121 1270v112h699v-112h-699z" />
    <glyph glyph-name="degree" unicode="&#xb0;" horiz-adv-x="819" 
d="M217 1157q0 -76 53 -134q54 -58 140 -58t139 58t53 134t-53 134q-53 59 -139 59t-140 -58t-53 -135zM115 1157q0 123 86 209t209 86q122 0 208 -86t86 -209t-86 -209t-208 -86t-209 86q-86 86 -86 209z" />
    <glyph glyph-name="plusminus" unicode="&#xb1;" horiz-adv-x="1228" 
d="M98 0v139h1032v-139h-1032zM98 555v139h447v340h139v-340h446v-139h-446v-342h-139v342h-447z" />
    <glyph glyph-name="two.superior" unicode="&#xb2;" horiz-adv-x="681" 
d="M184 1137h-139q0 141 86 228t221 87t222 -70q88 -70 88 -183t-70 -182q-70 -68 -162 -120q-204 -117 -241 -165q-15 -22 -21 -46h481v-113h-620q6 139 68 213q63 74 193 148t181 126t51 126t-49 113q-49 40 -128 40t-120 -57t-41 -145z" />
    <glyph glyph-name="three.superior" unicode="&#xb3;" horiz-adv-x="681" 
d="M270 977v102h49q74 0 122 33t48 96q0 64 -44 98q-45 34 -119 34t-116 -50q-42 -49 -42 -127h-139q8 133 88 211t213 78t216 -62t83 -178q0 -55 -40 -102t-100 -72v-4q87 -16 133 -72t46 -137q0 -127 -98 -197t-237 -69q-140 0 -233 76q-92 76 -92 213h139q1 -84 51 -130
t134 -46t140 40t56 114t-55 112q-55 39 -135 39h-68z" />
    <glyph glyph-name="acute" unicode="&#xb4;" horiz-adv-x="454" 
d="M102 1204l177 293h223l-269 -293h-131z" />
    <glyph glyph-name="mu" unicode="&#xb5;" 
d="M1008 1059v-1059h-164v168h-4q-109 -193 -344 -193q-137 0 -187 78h-4v-459h-174v1465h174v-717q1 -96 59 -154t156 -59q154 0 234 91t80 241v598h174z" />
    <glyph glyph-name="paragraph" unicode="&#xb6;" horiz-adv-x="1228" 
d="M1055 1462v-1779h-140v1667h-249v-1667h-140v976q-186 0 -307 110t-121 271q0 199 125 311t342 111h490z" />
    <glyph glyph-name="periodcentered" unicode="&#xb7;" horiz-adv-x="569" 
d="M154 637q0 53 39 92t91 39t92 -40t40 -90t-40 -91t-91 -41t-91 39t-40 92z" />
    <glyph glyph-name="cedilla" unicode="&#xb8;" horiz-adv-x="454" 
d="M170 -328q51 0 90 16t39 45q0 30 -28 48q-27 18 -65 18t-87 -16l-35 57l125 160h86l-86 -109l4 -4q20 15 79 15q60 0 110 -39t50 -122t-76 -127t-168 -44t-198 39l37 90q72 -27 123 -27z" />
    <glyph glyph-name="one.superior" unicode="&#xb9;" horiz-adv-x="681" 
d="M510 1452v-879h-139v631h-236v103q242 4 273 145h102z" />
    <glyph glyph-name="ordmasculine" unicode="&#xba;" horiz-adv-x="786" 
d="M596 1126q0 116 -60 170t-145 54q-86 0 -143 -60q-58 -60 -58 -170q0 -108 50 -174t155 -65q201 -1 201 245zM393 1452q162 0 252 -95t90 -246t-88 -242t-250 -91t-254 92t-92 242t90 245t252 95z" />
    <glyph glyph-name="guillemotright" unicode="&#xbb;" horiz-adv-x="948" 
d="M535 905l311 -246v-180l-311 -246v177l204 159l-204 160v176zM133 905l311 -246v-180l-311 -246v177l205 159l-205 160v176z" />
    <glyph glyph-name="onequarter" unicode="&#xbc;" horiz-adv-x="1708" 
d="M449 1452v-879h-140v631h-235v103q242 0 272 145h103zM307 -57l891 1542h131l-891 -1542h-131zM1354 309v396h-4l-303 -396h307zM1481 879v-570h123v-112h-123v-197h-127v197h-408v118l430 564h105z" />
    <glyph glyph-name="onehalf" unicode="&#xbd;" horiz-adv-x="1708" 
d="M1167 563h-139q0 141 86 229t221 87q135 0 223 -70t87 -184q0 -114 -68 -181t-218 -151q-150 -85 -187 -134q-15 -22 -21 -46h481v-113h-620q6 139 68 213q62 73 192 147t182 126q51 52 51 126t-49 114t-128 40t-120 -58t-41 -145zM449 1452v-879h-140v631h-235v103
q242 0 272 145h103zM276 -57l891 1542h131l-890 -1542h-132z" />
    <glyph glyph-name="threequarters" unicode="&#xbe;" horiz-adv-x="1708" 
d="M362 977v102h50q74 0 122 33t48 96q0 64 -44 98t-119 34t-117 -50q-42 -49 -42 -127h-139q8 133 88 211t213 78t216 -62t83 -178q0 -55 -40 -102t-99 -72v-4q86 -16 132 -72t46 -137q0 -127 -97 -197t-237 -69q-140 0 -233 76q-92 76 -93 213h140q2 -84 51 -130t133 -46
t140 40t56 114t-54 112q-56 39 -136 39h-68zM440 -57l891 1542h131l-891 -1542h-131zM1391 301v395h-5l-303 -395h308zM1516 879v-570h122v-112h-122v-197h-127v197h-408v118l430 564h105z" />
    <glyph glyph-name="questiondown" unicode="&#xbf;" 
d="M690 1059v-228h-227v228h227zM580 -430q-202 0 -322 110t-119 300q0 114 46 190q45 76 119 146t102 100q27 29 57 89q31 60 31 126v63h174v-80q0 -157 -132 -289l-53 -53q-96 -96 -131 -158q-36 -62 -28 -162q8 -102 74 -165t188 -63q124 0 198 94t72 243h174
q4 -215 -122 -353t-328 -138z" />
    <glyph glyph-name="Agrave" unicode="&#xc0;" horiz-adv-x="1327" 
d="M657 1567l-268 293h223l176 -293h-131zM659 1286l-247 -682h495l-243 682h-5zM-14 0l571 1462h215l571 -1462h-215l-159 440h-619l-164 -440h-200z" />
    <glyph glyph-name="Aacute" unicode="&#xc1;" horiz-adv-x="1327" 
d="M539 1567l176 293h223l-268 -293h-131zM659 1286l-247 -682h495l-243 682h-5zM-14 0l571 1462h215l571 -1462h-215l-159 440h-619l-164 -440h-200z" />
    <glyph glyph-name="Acircumflex" unicode="&#xc2;" horiz-adv-x="1327" 
d="M356 1567l211 293h191l213 -293h-172l-142 196l-143 -196h-158zM659 1286l-247 -682h495l-243 682h-5zM-14 0l571 1462h215l571 -1462h-215l-159 440h-619l-164 -440h-200z" />
    <glyph glyph-name="Atilde" unicode="&#xc3;" horiz-adv-x="1327" 
d="M317 1585q63 225 199 225q72 0 168 -41q94 -41 135 -40q67 0 94 90h107q-12 -90 -64 -164q-57 -63 -161 -64q-37 0 -139 40t-136 40q-34 -1 -66 -25t-30 -61h-107zM659 1286l-247 -682h495l-243 682h-5zM-14 0l571 1462h215l571 -1462h-215l-159 440h-619l-164 -440h-200
z" />
    <glyph glyph-name="Adieresis" unicode="&#xc4;" horiz-adv-x="1327" 
d="M379 1575v213h184v-213h-184zM764 1575v213h184v-213h-184zM659 1286l-247 -682h495l-243 682h-5zM-14 0l571 1462h215l571 -1462h-215l-159 440h-619l-164 -440h-200z" />
    <glyph glyph-name="Aring" unicode="&#xc5;" horiz-adv-x="1327" 
d="M432 1718q0 96 69 164t163 68t162 -68t69 -164q0 -96 -69 -164q-68 -68 -162 -68t-163 68t-69 164zM524 1718q0 -59 41 -99t99 -40t98 40q41 40 41 99q0 60 -41 100t-98 40t-99 -40q-41 -41 -41 -100zM659 1286l-247 -682h495l-243 682h-5zM-14 0l571 1462h215l571 -1462
h-215l-159 440h-619l-164 -440h-200z" />
    <glyph glyph-name="AE" unicode="&#xc6;" horiz-adv-x="1896" 
d="M918 1298h-84l-345 -708h429v708zM1821 1462v-164h-719v-464h676v-164h-676v-506h731v-164h-915v426h-504l-209 -426h-219l739 1462h1096z" />
    <glyph glyph-name="Ccedilla" unicode="&#xc7;" horiz-adv-x="1478" 
d="M778 1333q-246 0 -370 -171t-125 -430q0 -259 124 -431t373 -172q186 0 297 117t125 305h195q-29 -270 -190 -426t-427 -158l-59 -76l4 -4q20 15 79 15q60 0 110 -39t50 -122t-76 -127q-77 -44 -168 -44t-198 39l37 90q72 -27 123 -27t90 16t39 45q0 30 -28 48
q-27 18 -65 18t-87 -16l-35 57l100 129q-296 23 -452 232t-156 533t183 544q183 219 509 219q238 0 404 -124t198 -351h-194q-32 152 -142 232t-268 79z" />
    <glyph glyph-name="Egrave" unicode="&#xc8;" horiz-adv-x="1251" 
d="M621 1567l-269 293h223l177 -293h-131zM160 0v1462h1009v-164h-815v-464h760v-164h-760v-506h822v-164h-1016z" />
    <glyph glyph-name="Eacute" unicode="&#xc9;" horiz-adv-x="1251" 
d="M502 1567l176 293h223l-268 -293h-131zM160 0v1462h1009v-164h-815v-464h760v-164h-760v-506h822v-164h-1016z" />
    <glyph glyph-name="Ecircumflex" unicode="&#xca;" horiz-adv-x="1251" 
d="M319 1567l211 293h191l213 -293h-172l-141 196l-144 -196h-158zM160 0v1462h1009v-164h-815v-464h760v-164h-760v-506h822v-164h-1016z" />
    <glyph glyph-name="Edieresis" unicode="&#xcb;" horiz-adv-x="1251" 
d="M342 1575v213h184v-213h-184zM727 1575v213h184v-213h-184zM160 0v1462h1009v-164h-815v-464h760v-164h-760v-506h822v-164h-1016z" />
    <glyph glyph-name="Igrave" unicode="&#xcc;" horiz-adv-x="530" 
d="M260 1567l-268 293h223l176 -293h-131zM168 0v1462h194v-1462h-194z" />
    <glyph glyph-name="Iacute" unicode="&#xcd;" horiz-adv-x="530" 
d="M141 1567l176 293h224l-269 -293h-131zM168 0v1462h194v-1462h-194z" />
    <glyph glyph-name="Icircumflex" unicode="&#xce;" horiz-adv-x="530" 
d="M-41 1567l211 293h190l213 -293h-172l-141 196l-143 -196h-158zM168 0v1462h194v-1462h-194z" />
    <glyph glyph-name="Idieresis" unicode="&#xcf;" horiz-adv-x="530" 
d="M-18 1575v213h184v-213h-184zM367 1575v213h184v-213h-184zM168 0v1462h194v-1462h-194z" />
    <glyph glyph-name="Eth" unicode="&#xd0;" horiz-adv-x="1441" 
d="M354 1298v-464h439v-140h-439v-530h324q53 0 103 7t126 41t129 91t93 170t40 266q0 274 -114 417q-115 142 -373 142h-328zM160 0v694h-144v140h144v628h502q342 0 522 -174t180 -522q0 -766 -702 -766h-502z" />
    <glyph glyph-name="Ntilde" unicode="&#xd1;" horiz-adv-x="1478" 
d="M393 1585q63 225 199 225q72 0 168 -41q94 -41 135 -40q67 0 94 90h107q-30 -226 -226 -228q-37 0 -135 41q-104 39 -139 39q-35 -1 -67 -25t-29 -61h-107zM158 0v1462h207l770 -1186h4v1186h184v-1462h-213l-764 1174h-4v-1174h-184z" />
    <glyph glyph-name="Ograve" unicode="&#xd2;" horiz-adv-x="1556" 
d="M772 1567l-268 293h223l176 -293h-131zM778 129q170 0 288 91t168 223t50 288t-50 288t-168 223t-288 91t-288 -91q-218 -168 -218 -510t218 -512q118 -91 288 -91zM78 731q0 205 76 375t238 280t386 111q223 0 386 -111q163 -110 239 -280t76 -375t-76 -375t-239 -280
t-386 -111q-223 0 -386 111q-162 110 -238 280t-76 375z" />
    <glyph glyph-name="Oacute" unicode="&#xd3;" horiz-adv-x="1556" 
d="M653 1567l176 293h224l-269 -293h-131zM778 129q170 0 288 91t168 223t50 288t-50 288t-168 223t-288 91t-288 -91q-218 -168 -218 -510t218 -512q118 -91 288 -91zM78 731q0 205 76 375t238 280t386 111q223 0 386 -111q163 -110 239 -280t76 -375t-76 -375t-239 -280
t-386 -111q-223 0 -386 111q-162 110 -238 280t-76 375z" />
    <glyph glyph-name="Ocircumflex" unicode="&#xd4;" horiz-adv-x="1556" 
d="M471 1567l211 293h190l213 -293h-172l-141 196l-143 -196h-158zM778 129q170 0 288 91t168 223t50 288t-50 288t-168 223t-288 91t-288 -91q-218 -168 -218 -510t218 -512q118 -91 288 -91zM78 731q0 205 76 375t238 280t386 111q223 0 386 -111q163 -110 239 -280
t76 -375t-76 -375t-239 -280t-386 -111q-223 0 -386 111q-162 110 -238 280t-76 375z" />
    <glyph glyph-name="Otilde" unicode="&#xd5;" horiz-adv-x="1556" 
d="M432 1585q64 225 200 225q72 0 166 -41t136 -40q67 0 94 90h107q-30 -226 -226 -228q-37 0 -135 41q-104 39 -139 39q-35 -1 -67 -25t-29 -61h-107zM778 129q170 0 288 91t168 223t50 288t-50 288t-168 223t-288 91t-288 -91q-218 -168 -218 -510t218 -512
q118 -91 288 -91zM78 731q0 205 76 375t238 280t386 111q223 0 386 -111q163 -110 239 -280t76 -375t-76 -375t-239 -280t-386 -111q-223 0 -386 111q-162 110 -238 280t-76 375z" />
    <glyph glyph-name="Odieresis" unicode="&#xd6;" horiz-adv-x="1556" 
d="M494 1575v213h184v-213h-184zM879 1575v213h184v-213h-184zM778 129q170 0 288 91t168 223t50 288t-50 288t-168 223t-288 91t-288 -91q-218 -168 -218 -510t218 -512q118 -91 288 -91zM78 731q0 205 76 375t238 280t386 111q223 0 386 -111q163 -110 239 -280t76 -375
t-76 -375t-239 -280t-386 -111q-223 0 -386 111q-162 110 -238 280t-76 375z" />
    <glyph glyph-name="multiply" unicode="&#xd7;" horiz-adv-x="1228" 
d="M244 49l-99 98l373 373l-371 369l99 98l370 -369l369 369l98 -98l-368 -369l370 -373l-98 -98l-371 373z" />
    <glyph glyph-name="Oslash" unicode="&#xd8;" horiz-adv-x="1556" 
d="M1479 731q0 -205 -76 -375t-239 -280t-386 -111q-287 0 -469 176l-166 -182l-67 61l172 189q-170 211 -170 522q0 205 76 375t238 280t386 111q289 0 475 -180l162 178l66 -61l-168 -185q166 -213 166 -518zM778 129q170 0 288 91q218 168 218 511q0 221 -98 377
l-756 -834q129 -145 348 -145zM375 348l755 834q-131 152 -352 151q-170 0 -288 -91q-216 -166 -218 -511q1 -223 103 -383z" />
    <glyph glyph-name="Ugrave" unicode="&#xd9;" horiz-adv-x="1478" 
d="M733 1567l-268 293h223l176 -293h-131zM1327 1462v-934q1 -274 -149 -418t-434 -144t-438 138q-155 139 -154 424v934h194v-934q0 -193 106 -296t294 -103q190 0 288 103t99 296v934h194z" />
    <glyph glyph-name="Uacute" unicode="&#xda;" horiz-adv-x="1478" 
d="M614 1567l177 293h223l-269 -293h-131zM1327 1462v-934q1 -274 -149 -418t-434 -144t-438 138q-155 139 -154 424v934h194v-934q0 -193 106 -296t294 -103q190 0 288 103t99 296v934h194z" />
    <glyph glyph-name="Ucircumflex" unicode="&#xdb;" horiz-adv-x="1478" 
d="M432 1567l211 293h191l213 -293h-173l-141 196l-143 -196h-158zM1327 1462v-934q1 -274 -149 -418t-434 -144t-438 138q-155 139 -154 424v934h194v-934q0 -193 106 -296t294 -103q190 0 288 103t99 296v934h194z" />
    <glyph glyph-name="Udieresis" unicode="&#xdc;" horiz-adv-x="1478" 
d="M455 1575v213h184v-213h-184zM840 1575v213h184v-213h-184zM1327 1462v-934q1 -274 -149 -418t-434 -144t-438 138q-155 139 -154 424v934h194v-934q0 -193 106 -296t294 -103q190 0 288 103t99 296v934h194z" />
    <glyph glyph-name="Yacute" unicode="&#xdd;" horiz-adv-x="1327" 
d="M539 1567l176 293h223l-268 -293h-131zM764 0h-195v598l-565 864h232l438 -696l428 696h221l-559 -864v-598z" />
    <glyph glyph-name="Thorn" unicode="&#xde;" horiz-adv-x="1327" 
d="M354 1065v-537h381q319 -2 320 267q0 270 -320 270h-381zM354 0h-194v1462h194v-233h447q217 0 333 -114q116 -113 116 -319t-116 -320t-333 -111h-447v-365z" />
    <glyph glyph-name="germandbls" unicode="&#xdf;" 
d="M131 0v1087q0 182 112 296t286 114q175 0 303 -95t129 -263q0 -248 -213 -318v-4q134 -17 206 -121t72 -245q0 -211 -131 -343t-342 -133q-31 0 -88 9v151q23 -6 70 -6q139 0 223 83t84 216q0 186 -92 246t-285 61v139q137 -8 224 48t87 190q0 96 -65 164t-173 68
t-170 -64q-62 -63 -63 -223v-1057h-174z" />
    <glyph glyph-name="agrave" unicode="&#xe0;" horiz-adv-x="1099" 
d="M545 1204l-269 293h224l176 -293h-131zM944 -25q-147 0 -147 164q-139 -164 -373 -164q-156 0 -253 74t-97 235t117 231t333 98q217 29 248 78q16 26 16 63q0 176 -244 176t-255 -201h-174q8 184 131 269t317 85q397 0 398 -290v-545q0 -72 8 -96q7 -24 39 -23
q32 0 61 10v-135q-47 -29 -125 -29zM786 369v178q-51 -38 -169 -53q-119 -15 -146 -19q-101 -18 -157 -60t-56 -126t58 -122t147 -38q155 0 239 77t84 163z" />
    <glyph glyph-name="aacute" unicode="&#xe1;" horiz-adv-x="1099" 
d="M426 1204l176 293h223l-268 -293h-131zM944 -25q-147 0 -147 164q-139 -164 -373 -164q-156 0 -253 74t-97 235t117 231t333 98q217 29 248 78q16 26 16 63q0 176 -244 176t-255 -201h-174q8 184 131 269t317 85q397 0 398 -290v-545q0 -72 8 -96q7 -24 39 -23
q32 0 61 10v-135q-47 -29 -125 -29zM786 369v178q-51 -38 -169 -53q-119 -15 -146 -19q-101 -18 -157 -60t-56 -126t58 -122t147 -38q155 0 239 77t84 163z" />
    <glyph glyph-name="acircumflex" unicode="&#xe2;" horiz-adv-x="1099" 
d="M244 1204l211 293h190l213 -293h-172l-141 197l-144 -197h-157zM944 -25q-147 0 -147 164q-139 -164 -373 -164q-156 0 -253 74t-97 235t117 231t333 98q217 29 248 78q16 26 16 63q0 176 -244 176t-255 -201h-174q8 184 131 269t317 85q397 0 398 -290v-545q0 -72 8 -96
q7 -24 39 -23q32 0 61 10v-135q-47 -29 -125 -29zM786 369v178q-51 -38 -169 -53q-119 -15 -146 -19q-101 -18 -157 -60t-56 -126t58 -122t147 -38q155 0 239 77t84 163z" />
    <glyph glyph-name="atilde" unicode="&#xe3;" horiz-adv-x="1099" 
d="M205 1223q63 225 199 225q72 0 167 -41q94 -41 136 -41q67 0 94 90h106q-12 -90 -63 -164q-57 -63 -162 -63q-37 0 -135 41q-104 39 -139 39t-67 -25t-30 -61h-106zM944 -25q-147 0 -147 164q-139 -164 -373 -164q-156 0 -253 74t-97 235t117 231t333 98q217 29 248 78
q16 26 16 63q0 176 -244 176t-255 -201h-174q8 184 131 269t317 85q397 0 398 -290v-545q0 -72 8 -96q7 -24 39 -23q32 0 61 10v-135q-47 -29 -125 -29zM786 369v178q-51 -38 -169 -53q-119 -15 -146 -19q-101 -18 -157 -60t-56 -126t58 -122t147 -38q155 0 239 77t84 163z
" />
    <glyph glyph-name="adieresis" unicode="&#xe4;" horiz-adv-x="1099" 
d="M266 1212v213h185v-213h-185zM651 1212v213h185v-213h-185zM944 -25q-147 0 -147 164q-139 -164 -373 -164q-156 0 -253 74t-97 235t117 231t333 98q217 29 248 78q16 26 16 63q0 176 -244 176t-255 -201h-174q8 184 131 269t317 85q397 0 398 -290v-545q0 -72 8 -96
q7 -24 39 -23q32 0 61 10v-135q-47 -29 -125 -29zM786 369v178q-51 -38 -169 -53q-119 -15 -146 -19q-101 -18 -157 -60t-56 -126t58 -122t147 -38q155 0 239 77t84 163z" />
    <glyph glyph-name="aring" unicode="&#xe5;" horiz-adv-x="1099" 
d="M319 1356q0 94 68 163t164 69t164 -70q67 -68 67 -162t-68 -163t-163 -69q-96 0 -164 69t-68 163zM412 1356q0 -56 40 -98t99 -42t99 42q40 40 40 98t-40 98q-40 41 -99 41t-99 -41t-40 -98zM944 -25q-147 0 -147 164q-139 -164 -373 -164q-156 0 -253 74t-97 235
t117 231t333 98q217 29 248 78q16 26 16 63q0 176 -244 176t-255 -201h-174q8 184 131 269t317 85q397 0 398 -290v-545q0 -72 8 -96q7 -24 39 -23q32 0 61 10v-135q-47 -29 -125 -29zM786 369v178q-51 -38 -169 -53q-119 -15 -146 -19q-101 -18 -157 -60t-56 -126t58 -122
t147 -38q155 0 239 77t84 163z" />
    <glyph glyph-name="ae" unicode="&#xe6;" horiz-adv-x="1781" 
d="M1733 477h-777q0 -150 82 -249t236 -99q100 0 172 52t96 153h178q-40 -170 -160 -264t-298 -95q-291 0 -383 207q-113 -207 -447 -207q-162 0 -260 74t-98 235t109 226t348 106l116 20t79 23t43 31t24 76q0 96 -66 130t-174 34q-254 0 -264 -201h-174q8 184 131 269
t317 85q281 0 355 -153q100 154 337 153q478 0 478 -606zM258 289q0 -84 58 -122t147 -38q158 0 244 77t86 163v178q-52 -33 -173 -51q-122 -17 -149 -21q-101 -18 -157 -60t-56 -126zM1253 930q-135 0 -216 -84t-81 -215h592q-4 129 -82 214t-213 85z" />
    <glyph glyph-name="ccedilla" unicode="&#xe7;" horiz-adv-x="1099" 
d="M552 129q140 0 215 69t91 189h178q-29 -188 -140 -295q-112 -106 -296 -115l-68 -86l5 -4q21 15 79 15t109 -39t51 -122t-77 -127t-168 -44t-197 39l37 90q72 -27 123 -27t90 16t39 45q0 30 -28 48t-66 18t-87 -16l-34 57l108 140q-211 16 -327 161q-115 145 -115 385
t129 399t370 158q191 0 315 -92t142 -272h-180q-20 100 -88 155q-68 56 -166 56q-190 1 -268 -127q-70 -112 -70 -280q0 -169 77 -281t217 -113z" />
    <glyph glyph-name="egrave" unicode="&#xe8;" horiz-adv-x="1099" 
d="M545 1204l-269 293h224l176 -293h-131zM559 930q-129 0 -210 -86t-91 -213h608q-6 127 -92 213t-215 86zM588 129q227 0 274 207h172q-36 -174 -154 -267t-298 -94q-244 0 -372 152t-136 405q0 238 140 395t357 156q109 0 195 -39t139 -100t88 -143q64 -151 58 -324h-793
q-4 -147 80 -247t250 -101z" />
    <glyph glyph-name="eacute" unicode="&#xe9;" horiz-adv-x="1099" 
d="M426 1204l176 293h223l-268 -293h-131zM559 930q-129 0 -210 -86t-91 -213h608q-6 127 -92 213t-215 86zM588 129q227 0 274 207h172q-36 -174 -154 -267t-298 -94q-244 0 -372 152t-136 405q0 238 140 395t357 156q109 0 195 -39t139 -100t88 -143q64 -151 58 -324h-793
q-4 -147 80 -247t250 -101z" />
    <glyph glyph-name="ecircumflex" unicode="&#xea;" horiz-adv-x="1099" 
d="M244 1204l211 293h190l213 -293h-172l-141 197l-144 -197h-157zM559 930q-129 0 -210 -86t-91 -213h608q-6 127 -92 213t-215 86zM588 129q227 0 274 207h172q-36 -174 -154 -267t-298 -94q-244 0 -372 152t-136 405q0 238 140 395t357 156q109 0 195 -39t139 -100
t88 -143q64 -151 58 -324h-793q-4 -147 80 -247t250 -101z" />
    <glyph glyph-name="edieresis" unicode="&#xeb;" horiz-adv-x="1099" 
d="M266 1212v213h185v-213h-185zM651 1212v213h185v-213h-185zM559 930q-129 0 -210 -86t-91 -213h608q-6 127 -92 213t-215 86zM588 129q227 0 274 207h172q-36 -174 -154 -267t-298 -94q-244 0 -372 152t-136 405q0 238 140 395t357 156q109 0 195 -39t139 -100t88 -143
q64 -151 58 -324h-793q-4 -147 80 -247t250 -101z" />
    <glyph glyph-name="igrave" unicode="&#xec;" horiz-adv-x="454" 
d="M221 1204l-268 293h223l176 -293h-131zM315 0h-174v1059h174v-1059z" />
    <glyph glyph-name="iacute" unicode="&#xed;" horiz-adv-x="454" 
d="M102 1204l177 293h223l-269 -293h-131zM315 0h-174v1059h174v-1059z" />
    <glyph glyph-name="icircumflex" unicode="&#xee;" horiz-adv-x="454" 
d="M-80 1204l211 293h191l213 -293h-173l-141 197l-143 -197h-158zM315 0h-174v1059h174v-1059z" />
    <glyph glyph-name="idieresis" unicode="&#xef;" horiz-adv-x="454" 
d="M-57 1212v213h184v-213h-184zM328 1212v213h184v-213h-184zM315 0h-174v1059h174v-1059z" />
    <glyph glyph-name="eth" unicode="&#xf0;" horiz-adv-x="1175" 
d="M586 883q-162 -1 -245 -97t-83 -270t94 -280t236 -106t235 106q95 106 95 275t-85 271t-247 101zM557 1036q184 0 285 -114h4q-43 96 -117 182t-133 127l-236 -111l-77 82l223 105q-55 47 -144 98l144 92q147 -106 158 -115l245 115l72 -76l-236 -108q356 -293 357 -785
q0 -242 -135 -398t-379 -155q-244 0 -379 156t-135 382q0 227 130 375t353 148z" />
    <glyph glyph-name="ntilde" unicode="&#xf1;" 
d="M223 1223q63 225 199 225q72 0 168 -41q94 -41 135 -41q67 0 94 90h107q-12 -90 -64 -164q-57 -63 -162 -63q-37 0 -135 41q-104 39 -139 39t-67 -25t-29 -61h-107zM131 0v1059h164v-168h4q109 193 344 192q197 0 281 -101t84 -286v-696h-174v717q0 98 -58 155t-158 58
q-154 0 -234 -91t-79 -241v-598h-174z" />
    <glyph glyph-name="ograve" unicode="&#xf2;" horiz-adv-x="1175" 
d="M582 1204l-269 293h224l176 -293h-131zM258 528q0 -186 94 -292t236 -106t235 106q94 106 95 292q0 186 -94 294t-236 108t-236 -108t-94 -294zM588 -25q-244 -1 -379 155t-135 399t135 399t379 156t379 -156t135 -399t-135 -399t-379 -155z" />
    <glyph glyph-name="oacute" unicode="&#xf3;" horiz-adv-x="1175" 
d="M463 1204l176 293h223l-268 -293h-131zM258 528q0 -186 94 -292t236 -106t235 106q94 106 95 292q0 186 -94 294t-236 108t-236 -108t-94 -294zM588 -25q-244 -1 -379 155t-135 399t135 399t379 156t379 -156t135 -399t-135 -399t-379 -155z" />
    <glyph glyph-name="ocircumflex" unicode="&#xf4;" horiz-adv-x="1175" 
d="M281 1204l211 293h190l213 -293h-172l-141 197l-144 -197h-157zM258 528q0 -186 94 -292t236 -106t235 106q94 106 95 292q0 186 -94 294t-236 108t-236 -108t-94 -294zM588 -25q-244 -1 -379 155t-135 399t135 399t379 156t379 -156t135 -399t-135 -399t-379 -155z" />
    <glyph glyph-name="otilde" unicode="&#xf5;" horiz-adv-x="1175" 
d="M242 1223q63 225 199 225q73 0 167 -41t135 -41q68 0 95 90h106q-12 -90 -63 -164q-57 -63 -162 -63q-37 0 -135 41q-104 39 -140 39t-66 -25q-32 -25 -30 -61h-106zM258 528q0 -186 94 -292t236 -106t235 106q94 106 95 292q0 186 -94 294t-236 108t-236 -108t-94 -294z
M588 -25q-244 -1 -379 155t-135 399t135 399t379 156t379 -156t135 -399t-135 -399t-379 -155z" />
    <glyph glyph-name="odieresis" unicode="&#xf6;" horiz-adv-x="1175" 
d="M303 1212v213h184v-213h-184zM688 1212v213h184v-213h-184zM258 528q0 -186 94 -292t236 -106t235 106q94 106 95 292q0 186 -94 294t-236 108t-236 -108t-94 -294zM588 -25q-244 -1 -379 155t-135 399t135 399t379 156t379 -156t135 -399t-135 -399t-379 -155z" />
    <glyph glyph-name="divide" unicode="&#xf7;" horiz-adv-x="1228" 
d="M483 96q0 53 39 92t92 39q52 0 92 -40t40 -90t-40 -91q-38 -41 -90 -41t-93 39q-40 39 -40 92zM483 940q0 53 39 92t92 39q52 0 92 -40t40 -90t-40 -91q-38 -41 -90 -41t-93 39q-40 39 -40 92zM98 449v139h1032v-139h-1032z" />
    <glyph glyph-name="oslash" unicode="&#xf8;" horiz-adv-x="1175" 
d="M1102 523q0 -237 -135 -393t-379 -155q-205 0 -338 117l-123 -137l-57 49l127 141q-123 151 -123 389t135 394t379 155q211 0 344 -120l119 133l55 -54l-123 -135q119 -147 119 -384zM593 129q136 1 230 107t94 271t-57 265l-495 -551q92 -92 228 -92zM586 930
q-140 0 -234 -108t-94 -294q0 -141 61 -247l496 553q-90 96 -229 96z" />
    <glyph glyph-name="ugrave" unicode="&#xf9;" 
d="M563 1204l-268 293h223l176 -293h-131zM1008 1059v-1059h-164v168h-4q-109 -193 -344 -193q-197 -1 -281 101t-84 286v697h174v-717q1 -96 59 -154t156 -59q154 0 234 91t80 241v598h174z" />
    <glyph glyph-name="uacute" unicode="&#xfa;" 
d="M444 1204l177 293h223l-269 -293h-131zM1008 1059v-1059h-164v168h-4q-109 -193 -344 -193q-197 -1 -281 101t-84 286v697h174v-717q1 -96 59 -154t156 -59q154 0 234 91t80 241v598h174z" />
    <glyph glyph-name="ucircumflex" unicode="&#xfb;" 
d="M262 1204l211 293h191l213 -293h-172l-142 197l-143 -197h-158zM1008 1059v-1059h-164v168h-4q-109 -193 -344 -193q-197 -1 -281 101t-84 286v697h174v-717q1 -96 59 -154t156 -59q154 0 234 91t80 241v598h174z" />
    <glyph glyph-name="udieresis" unicode="&#xfc;" 
d="M285 1212v213h184v-213h-184zM670 1212v213h184v-213h-184zM1008 1059v-1059h-164v168h-4q-109 -193 -344 -193q-197 -1 -281 101t-84 286v697h174v-717q1 -96 59 -154t156 -59q154 0 234 91t80 241v598h174z" />
    <glyph glyph-name="yacute" unicode="&#xfd;" horiz-adv-x="1024" 
d="M387 1204l176 293h223l-268 -293h-131zM1008 1059l-461 -1200q-61 -158 -127 -220q-66 -63 -159 -63t-142 18v160q78 -25 102 -24q92 0 144 96l71 180l-420 1053h197l309 -866h4l297 866h185z" />
    <glyph glyph-name="thorn" unicode="&#xfe;" horiz-adv-x="1214" 
d="M311 1462v-547h4q41 84 132 126t206 42q233 0 361 -159q127 -160 127 -398t-126 -394t-358 -157q-96 0 -192 40t-150 126h-4v-547h-174v1868h174zM956 533q0 169 -84 283t-246 114t-241 -117q-80 -117 -80 -286t83 -283t250 -115q167 0 243 118q75 118 75 286z" />
    <glyph glyph-name="ydieresis" unicode="&#xff;" horiz-adv-x="1024" 
d="M227 1212v213h185v-213h-185zM612 1212v213h185v-213h-185zM1008 1059l-461 -1200q-61 -158 -127 -220q-66 -63 -159 -63t-142 18v160q78 -25 102 -24q92 0 144 96l71 180l-420 1053h197l309 -866h4l297 866h185z" />
    <glyph glyph-name="dotlessi" unicode="&#x131;" horiz-adv-x="454" 
d="M315 0h-174v1059h174v-1059z" />
    <glyph glyph-name="Lslash" unicode="&#x141;" 
d="M160 0v492l-162 -115v155l162 115v815h194v-676l467 328v-156l-467 -327v-467h774v-164h-968z" />
    <glyph glyph-name="lslash" unicode="&#x142;" horiz-adv-x="454" 
d="M141 0v657l-143 -112v145l143 115v657h174v-520l144 115v-146l-144 -114v-797h-174z" />
    <glyph glyph-name="OE" unicode="&#x152;" horiz-adv-x="2199" 
d="M1128 0v141h-4q-53 -82 -156 -129t-220 -47q-315 0 -493 215q-177 215 -177 550t184 551t502 216q111 0 215 -41t145 -115h4v121h977v-164h-782v-464h717v-164h-717v-506h795v-164h-990zM762 129q156 0 261 82t105 207v616q0 94 -38 152t-125 102q-88 44 -199 45
q-238 0 -366 -176t-128 -435t130 -426t360 -167z" />
    <glyph glyph-name="oe" unicode="&#x153;" horiz-adv-x="1824" 
d="M850 532q0 397 -295 398q-153 0 -225 -122t-72 -288t74 -278t223 -113q111 -1 179 63t92 149t24 191zM1585 631q0 135 -77 217t-212 82t-216 -83t-79 -216h584zM1307 129q104 0 180 54t106 153h166q-104 -360 -452 -361q-295 0 -385 209q-90 -209 -367 -209
q-237 0 -359 157q-122 158 -122 400t123 397t358 154q279 0 367 -186q53 90 155 138t219 48q252 0 370 -170t103 -436h-768q-4 -145 77 -247t229 -101z" />
    <glyph glyph-name="Scaron" unicode="&#x160;" horiz-adv-x="1327" 
d="M971 1860l-211 -293h-191l-213 293h172l142 -197l143 197h158zM643 1333q-139 0 -233 -59t-95 -191q-1 -64 25 -91t54 -53t118 -52q100 -28 223 -52q228 -46 372 -137t144 -297q0 -147 -90 -249q-165 -187 -481 -187q-262 0 -433 131t-171 385h184q0 -174 123 -263
t291 -89t276 61t107 205q0 182 -290 248q-52 12 -150 33t-161 38q-158 44 -247 127q-90 83 -88 228q0 209 155 319q156 110 384 110t374 -117q148 -116 156 -347h-184q-33 299 -363 299z" />
    <glyph glyph-name="scaron" unicode="&#x161;" horiz-adv-x="1024" 
d="M819 1497l-211 -293h-190l-213 293h172l141 -197l144 197h157zM522 129q256 0 256 158q0 48 -19 69q-19 20 -31 32t-37 24q-26 10 -42 17t-51 16t-51 13t-97 21q-153 29 -258 94q-106 65 -106 211q0 144 119 222t276 77q416 0 434 -331h-174q-8 94 -77 136
q-70 42 -166 42t-162 -31t-66 -94t32 -86q32 -24 58 -40t176 -49q149 -32 206 -53q56 -20 110 -54q110 -69 111 -214q0 -250 -289 -316q-76 -17 -162 -18q-195 -1 -318 87t-131 272h175q4 -109 84 -157t200 -48z" />
    <glyph glyph-name="Ydieresis" unicode="&#x178;" horiz-adv-x="1327" 
d="M379 1575v213h184v-213h-184zM764 1575v213h184v-213h-184zM764 0h-195v598l-565 864h232l438 -696l428 696h221l-559 -864v-598z" />
    <glyph glyph-name="Zcaron" unicode="&#x17d;" horiz-adv-x="1251" 
d="M934 1860l-211 -293h-191l-213 293h173l141 -197l143 197h158zM45 0v164l909 1134h-839v164h1069v-164l-908 -1134h932v-164h-1163z" />
    <glyph glyph-name="zcaron" unicode="&#x17e;" horiz-adv-x="983" 
d="M799 1497l-211 -293h-191l-213 293h172l142 -197l143 197h158zM45 0v133l639 772h-598v154h823v-119l-647 -786h676v-154h-893z" />
    <glyph glyph-name="florin" unicode="&#x192;" 
d="M858 1309q-102 0 -127 -107l-63 -282h209l-29 -140h-205l-113 -637q-49 -277 -133 -379t-256 -102h-135l29 154q164 0 211 34t73 175l144 755h-189l27 140h186l54 278q25 121 106 193q82 72 209 71h152l-29 -153h-121z" />
    <glyph glyph-name="circumflex" unicode="&#x2c6;" horiz-adv-x="454" 
d="M-80 1204l211 293h191l213 -293h-173l-141 197l-143 -197h-158z" />
    <glyph glyph-name="caron" unicode="&#x2c7;" horiz-adv-x="454" 
d="M535 1497l-211 -293h-191l-213 293h172l141 -197l144 197h158z" />
    <glyph glyph-name="uni02C9" unicode="&#x2c9;" horiz-adv-x="454" 
d="M-121 1270v112h699v-112h-699z" />
    <glyph glyph-name="breve" unicode="&#x2d8;" horiz-adv-x="454" 
d="M240 1327q82 0 125 41t77 129h105q-23 -133 -107 -208t-217 -75q-274 0 -315 283h102q49 -170 230 -170z" />
    <glyph glyph-name="dotaccent" unicode="&#x2d9;" horiz-adv-x="454" 
d="M319 1425v-213h-184v213h184z" />
    <glyph glyph-name="ring" unicode="&#x2da;" horiz-adv-x="454" 
d="M-4 1356q0 94 67 163q68 69 164 69t164 -70q68 -68 68 -162t-68 -163t-164 -69t-164 69q-67 69 -67 163zM88 1356q0 -56 40 -98t99 -42t100 41q40 41 40 99t-40 98q-39 41 -99 41t-100 -41t-40 -98z" />
    <glyph glyph-name="ogonek" unicode="&#x2db;" horiz-adv-x="454" 
d="M295 -242q0 -34 19 -60t59 -26q78 0 127 62l65 -37q-74 -127 -221 -127q-188 0 -188 168q0 26 12 58t70 92t151 118h82q-176 -145 -176 -248z" />
    <glyph glyph-name="tilde" unicode="&#x2dc;" horiz-adv-x="454" 
d="M-119 1223q63 225 199 225q72 0 168 -41q94 -41 135 -41q67 0 94 90h107q-12 -90 -64 -164q-57 -63 -162 -63q-37 0 -135 41q-104 39 -139 39t-67 -25t-29 -61h-107z" />
    <glyph glyph-name="hungarumlaut" unicode="&#x2dd;" horiz-adv-x="454" 
d="M221 1204l166 293h215l-246 -293h-135zM-98 1204l166 293h215l-246 -293h-135z" />
    <glyph glyph-name="uni03A9" unicode="&#x3a9;" horiz-adv-x="1472" 
d="M401 135v4q-119 107 -197 269t-77 360q0 295 175 486q175 192 441 192q265 0 433 -199t167 -471q-1 -202 -81 -370t-197 -267v-4h305v-135h-496v98q129 84 217 252q87 168 87 391t-118 395t-320 173q-202 0 -324 -163q-122 -162 -123 -392q0 -230 89 -404t212 -252v-98
h-496v135h303z" />
    <glyph glyph-name="uni03BC" unicode="&#x3bc;" 
d="M1008 1059v-1059h-164v168h-4q-109 -193 -344 -193q-137 0 -187 78h-4v-459h-174v1465h174v-717q1 -96 59 -154t156 -59q154 0 234 91t80 241v598h174z" />
    <glyph glyph-name="pi" unicode="&#x3c0;" horiz-adv-x="1173" 
d="M956 920v-619q0 -190 29 -301h-158q-35 59 -34 287v633h-363q-10 -219 -52 -502t-95 -418h-162q55 158 97 431t50 489q-152 0 -225 -25l-25 109q86 55 297 55h820l-15 -139h-164z" />
    <glyph glyph-name="endash" unicode="&#x2013;" horiz-adv-x="1024" 
d="M0 487v164h1024v-164h-1024z" />
    <glyph glyph-name="emdash" unicode="&#x2014;" horiz-adv-x="2048" 
d="M266 487v164h1516v-164h-1516z" />
    <glyph glyph-name="quoteleft" unicode="&#x2018;" horiz-adv-x="569" 
d="M399 1161v-227h-227v227q0 131 56 216t169 85v-102q-63 0 -91 -58t-27 -141h120z" />
    <glyph glyph-name="quoteright" unicode="&#x2019;" horiz-adv-x="569" 
d="M170 1235v227h227v-227q0 -131 -56 -216t-169 -85v102q63 0 91 58t28 141h-121z" />
    <glyph glyph-name="quotesinglbase" unicode="&#x201a;" horiz-adv-x="569" 
d="M170 0v227h227v-227q0 -131 -56 -216t-169 -85v102q63 1 91 59t28 140h-121z" />
    <glyph glyph-name="quotedblleft" unicode="&#x201c;" horiz-adv-x="872" 
d="M362 1161v-227h-227v227q0 131 56 216t169 85v-102q-63 0 -91 -58t-27 -141h120zM737 1161v-227h-227v227q0 131 56 216t169 85v-102q-63 0 -91 -58t-28 -141h121z" />
    <glyph glyph-name="quotedblright" unicode="&#x201d;" horiz-adv-x="872" 
d="M135 1235v227h227v-227q0 -131 -56 -216t-169 -85v102q63 0 91 58t28 141h-121zM510 1235v227h227v-227q0 -131 -56 -216t-169 -85v102q63 0 91 58t28 141h-121z" />
    <glyph glyph-name="quotedblbase" unicode="&#x201e;" horiz-adv-x="872" 
d="M510 0v227h227v-227q0 -131 -56 -216t-169 -85v102q63 1 91 59t28 140h-121zM135 0v227h227v-227q0 -131 -56 -216t-169 -85v102q63 1 91 59t28 140h-121z" />
    <glyph glyph-name="dagger" unicode="&#x2020;" 
d="M483 -317v1222h-397v154h397v403h164v-403h406v-154h-406v-1222h-164z" />
    <glyph glyph-name="daggerdbl" unicode="&#x2021;" 
d="M483 -317v403h-397v154h397v665h-397v154h397v403h164v-403h406v-154h-406v-665h406v-154h-406v-403h-164z" />
    <glyph glyph-name="bullet" unicode="&#x2022;" horiz-adv-x="1024" 
d="M147 731q1 152 107 258q106 107 258 107t260 -106t107 -259q0 -151 -108 -259q-107 -108 -259 -108t-258 108q-106 107 -107 259z" />
    <glyph glyph-name="ellipsis" unicode="&#x2026;" horiz-adv-x="2048" 
d="M1591 0v227h228v-227h-228zM909 0v227h228v-227h-228zM227 0v227h228v-227h-228z" />
    <glyph glyph-name="perthousand" unicode="&#x2030;" horiz-adv-x="2351" 
d="M184 -45l1102 1524h174l-1100 -1524h-176zM1755 324q0 -236 148 -236q83 0 115 70t32 144t-9 122q-9 49 -43 93t-87 44q-84 -1 -120 -71t-36 -166zM1904 674q156 0 228 -93t72 -252t-77 -256t-227 -97t-224 92q-74 93 -74 252t72 257q73 97 230 97zM1049 324
q0 -236 147 -236q82 0 115 70t33 144t-10 122q-9 49 -43 93t-87 44q-84 -1 -120 -71t-35 -166zM895 320q0 158 73 256q74 98 230 98t228 -93t71 -252q0 -159 -77 -256q-78 -97 -228 -97t-224 92q-74 93 -73 252zM301 1102q0 -236 148 -236q83 0 115 70t32 144t-9 122
q-9 49 -43 93t-87 44q-84 -1 -120 -71t-36 -166zM450 1452q156 0 228 -93t72 -252t-77 -256t-228 -97t-225 93t-73 252q0 159 73 256t230 97z" />
    <glyph glyph-name="guilsinglleft" unicode="&#x2039;" horiz-adv-x="530" 
d="M414 233l-312 246v180l312 246v-176l-205 -160l205 -159v-177z" />
    <glyph glyph-name="guilsinglright" unicode="&#x203a;" horiz-adv-x="530" 
d="M117 905l311 -246v-180l-311 -246v177l205 159l-205 160v176z" />
    <glyph glyph-name="fraction" unicode="&#x2044;" horiz-adv-x="342" 
d="M-340 -57l891 1542h131l-891 -1542h-131z" />
    <glyph glyph-name="Euro" unicode="&#x20ac;" 
d="M753 1327q-151 0 -251 -131q-80 -104 -115 -274h580l-56 -125h-538q-2 -23 -2 -59t2 -48h510l-54 -125h-446q68 -440 389 -440q98 0 164 34t151 113v-215q-139 -90 -315 -90q-502 0 -588 598h-157l55 125h94q-2 14 -2 51t2 56h-149l53 125h110q49 252 187 397
q154 166 395 166q187 0 371 -129l-94 -170q-145 141 -296 141z" />
    <glyph glyph-name="afii61289" unicode="&#x2113;" horiz-adv-x="997" 
d="M377 1087v-438q309 338 309 584q0 213 -143 213q-66 0 -116 -86t-50 -273zM565 -14q-166 0 -250 104t-92 266v27q-20 -14 -59 -47t-58 -47l-49 94q135 113 164 139v553q0 256 92 375q91 119 223 119t198 -93t65 -241q0 -334 -422 -746l2 -67q0 -154 62 -231
q61 -77 153 -77t164 59q71 58 116 140l76 -69q-137 -258 -385 -258z" />
    <glyph glyph-name="trademark" unicode="&#x2122;" horiz-adv-x="2027" 
d="M1898 1462v-844h-139v705h-4l-276 -705h-88l-277 705h-4v-705h-139v844h215l252 -641l248 641h212zM799 1462v-112h-264v-732h-140v732h-264v112h668z" />
    <glyph glyph-name="Omega" unicode="&#x2126;" horiz-adv-x="1472" 
d="M401 135v4q-119 107 -197 269t-77 360q0 295 175 486q175 192 441 192q265 0 433 -199t167 -471q-1 -202 -81 -370t-197 -267v-4h305v-135h-496v98q129 84 217 252q87 168 87 391t-118 395t-320 173q-202 0 -324 -163q-122 -162 -123 -392q0 -230 89 -404t212 -252v-98
h-496v135h303z" />
    <glyph glyph-name="estimated" unicode="&#x212e;" horiz-adv-x="1779" 
d="M1407 745v404q0 27 -18 49q-213 209 -501 209t-499 -215q-18 -20 -18 -51v-396q0 -12 10 -12h1018q8 0 8 12zM1710 692h-1329q-10 0 -10 -8v-401q0 -25 16 -47q211 -217 504 -218q154 0 291 66t237 178h117q-111 -131 -282 -208t-365 -77q-340 -1 -580 215t-239 521
q0 305 239 522q240 217 580 217q341 0 581 -217t240 -522v-21z" />
    <glyph glyph-name="partialdiff" unicode="&#x2202;" horiz-adv-x="1122" 
d="M496 121h2q135 0 227 148t115 358q-29 77 -107 147q-77 70 -193 70t-204 -115t-88 -267t68 -247q69 -94 180 -94zM1020 825q0 -371 -141 -607t-398 -234q-188 0 -292 142q-103 142 -103 352t128 354t306 145q125 1 212 -63t124 -130h2q2 23 2 86q0 258 -109 425t-265 167
t-277 -98l-55 119q141 115 352 115q210 0 362 -202q152 -200 152 -571z" />
    <glyph glyph-name="Delta" unicode="&#x2206;" horiz-adv-x="1325" 
d="M229 133h858l-290 762q-16 51 -68 190q-51 139 -65 189h-9q-10 -43 -59 -177t-61 -169zM63 0v109l508 1351h191l502 -1349v-111h-1201z" />
    <glyph glyph-name="product" unicode="&#x220f;" horiz-adv-x="1435" 
d="M1380 1274h-223v-1471h-160v1471h-561v-1471h-162v1471h-221v147h1327v-147z" />
    <glyph glyph-name="summation" unicode="&#x2211;" horiz-adv-x="1134" 
d="M1087 -197h-1040v109l545 698l-522 699v112h985v-139h-760v-8l483 -639l-522 -672v-6h831v-154z" />
    <glyph glyph-name="minus" unicode="&#x2212;" horiz-adv-x="1228" 
d="M98 449v139h1032v-139h-1032z" />
    <glyph glyph-name="uni2215" unicode="&#x2215;" horiz-adv-x="342" 
d="M-340 -57l891 1542h131l-891 -1542h-131z" />
    <glyph glyph-name="uni2219" unicode="&#x2219;" horiz-adv-x="569" 
d="M154 637q0 53 39 92t91 39t92 -40t40 -90t-40 -91t-91 -41t-91 39t-40 92z" />
    <glyph glyph-name="radical" unicode="&#x221a;" horiz-adv-x="1173" 
d="M1176 1692l-455 -1995h-143l-324 940l-154 -57l-30 98l284 110l256 -749q20 -72 37 -148l2 -2q6 39 29 152l377 1651h121z" />
    <glyph glyph-name="infinity" unicode="&#x221e;" horiz-adv-x="1585" 
d="M1174 811h-5q-119 0 -261 -165q-44 -50 -52 -58q112 -125 178 -175q66 -51 150 -51t138 67t54 163t-56 158t-146 61zM424 362h2q56 0 95 22q38 22 54 32t53 45t73 75t38 42q-49 61 -71 87q-89 101 -147 123q-58 23 -109 23q-92 0 -148 -68q-56 -69 -55 -161t61 -156
t154 -64zM1483 592v-2q0 -144 -93 -236t-221 -92q-92 0 -177 57t-197 185q-101 -117 -187 -179q-86 -63 -206 -63t-209 92q-91 92 -91 230t92 231q92 92 212 92q122 0 211 -63t186 -178q51 55 64 71q13 17 61 61q119 109 254 109t218 -88t83 -227z" />
    <glyph glyph-name="integral" unicode="&#x222b;" horiz-adv-x="739" 
d="M430 1210q0 -160 14 -506t15 -514q0 -281 -86 -411q-66 -109 -209 -109q-80 0 -135 33l26 119q55 -25 104 -25t83 45q70 90 69 348q0 170 -14 522t-14 518q0 165 25 265q26 100 94 173t188 73q59 0 112 -29l-26 -113q-32 21 -86 21t-90 -49q-70 -80 -70 -361z" />
    <glyph glyph-name="approxequal" unicode="&#x2248;" horiz-adv-x="1148" 
d="M898 416q44 36 91 114l66 -57q-102 -195 -264 -194q-57 0 -105 18t-152 78q-104 59 -162 59q-96 -1 -158 -77q-24 -28 -54 -76l-68 57q47 90 121 143q153 110 346 -5q37 -22 43 -24q24 -10 77 -41q53 -30 114 -30q61 -1 105 35zM787 731q67 0 112 37t90 115l66 -58
q-102 -197 -264 -196q-57 0 -105 18t-152 78q-104 59 -170 59t-111 -39q-44 -39 -93 -112l-68 55q47 92 121 144t160 53q86 0 186 -59q37 -22 54 -29t36 -19q71 -47 138 -47z" />
    <glyph glyph-name="notequal" unicode="&#x2260;" horiz-adv-x="1148" 
d="M1044 831v-104h-358l-137 -297h495v-104h-536l-111 -240l-82 37l93 203h-304v104h347l135 297h-482v104h523l108 236l82 -37l-90 -199h317z" />
    <glyph glyph-name="lessequal" unicode="&#x2264;" horiz-adv-x="1148" 
d="M1044 6h-940v107h940v-107zM1038 197l-923 458v111l923 459v-125l-813 -385v-4l813 -392v-122z" />
    <glyph glyph-name="greaterequal" unicode="&#x2265;" horiz-adv-x="1148" 
d="M1042 6h-936v107h936v-107zM117 1225l923 -459v-111l-923 -458v122l811 390v4l-811 387v125z" />
    <glyph glyph-name="lozenge" unicode="&#x25ca;" horiz-adv-x="1173" 
d="M913 707l-286 563q-27 63 -39 108h-4q-20 -66 -41 -108l-285 -555l289 -570q25 -53 37 -104h6q10 45 37 102zM1063 711l-414 -805h-131l-407 805l411 805h133z" />
    </font>
</defs>
</svg>
